<?xml version="1.0" standalone="no"?>
<!DOCTYPE svg PUBLIC "-//W3C//DTD SVG 20010904//EN"
 "http://www.w3.org/TR/2001/REC-SVG-20010904/DTD/svg10.dtd">
<svg version="1.0" xmlns="http://www.w3.org/2000/svg"
 width="1464.000000pt" height="1541.000000pt" viewBox="0 0 1464.000000 1541.000000"
 preserveAspectRatio="xMidYMid meet">
<metadata>
Created by potrace 1.16, written by Peter Selinger 2001-2019
</metadata>
<g transform="translate(0.000000,1541.000000) scale(0.100000,-0.100000)"
fill="#000000" stroke="none">
<path d="M5112 15398 c-1 -11 -10 -18 -22 -18 -17 0 -19 -3 -11 -19 9 -16 6
-21 -17 -29 -29 -12 -134 -32 -165 -32 -10 0 -21 9 -24 20 -3 11 -12 20 -19
20 -16 0 -19 -16 -4 -25 22 -14 7 -34 -37 -49 -26 -9 -55 -16 -65 -16 -10 0
-27 -9 -38 -20 -25 -25 -75 -26 -90 -2 -11 16 -11 16 -6 -2 9 -26 -17 -62 -50
-70 -15 -4 -40 -17 -55 -29 -15 -12 -44 -33 -64 -47 -67 -46 -88 -65 -184
-160 -94 -93 -194 -228 -224 -301 -8 -20 -20 -39 -25 -43 -6 -3 -14 -21 -17
-39 -4 -17 -15 -48 -25 -67 -10 -19 -23 -69 -30 -110 -18 -109 -25 -123 -55
-116 l-25 6 0 -170 c0 -166 0 -170 20 -158 10 7 22 9 25 6 15 -14 25 -92 36
-263 6 -99 15 -209 20 -245 15 -109 28 -247 39 -417 6 -89 15 -176 20 -193 5
-18 14 -116 20 -218 6 -103 16 -216 21 -252 13 -89 26 -226 39 -410 6 -85 15
-173 20 -195 5 -22 14 -123 20 -225 6 -102 16 -214 21 -250 19 -129 27 -217
33 -330 l7 -115 -48 -64 c-27 -35 -52 -71 -58 -80 -5 -9 -28 -41 -51 -71 -22
-30 -58 -83 -80 -118 -100 -161 -117 -188 -126 -207 -5 -11 -22 -42 -38 -70
-32 -56 -100 -192 -137 -275 -13 -30 -33 -73 -43 -95 -29 -65 -61 -148 -72
-185 -5 -19 -18 -57 -28 -85 -34 -92 -68 -209 -79 -268 -6 -31 -15 -66 -20
-76 -6 -10 -17 -59 -26 -107 -8 -49 -22 -118 -30 -154 -8 -36 -17 -108 -20
-160 -4 -52 -13 -138 -22 -190 -17 -112 -20 -549 -4 -621 6 -25 15 -108 21
-185 11 -131 24 -226 34 -243 3 -4 12 -51 21 -105 8 -54 20 -106 25 -116 6
-11 17 -53 24 -94 8 -41 21 -87 29 -103 8 -15 18 -48 22 -73 4 -25 14 -58 23
-75 8 -16 21 -50 28 -75 18 -63 72 -195 130 -315 13 -28 24 -58 24 -67 0 -9 5
-20 10 -23 6 -3 31 -48 56 -98 26 -51 58 -113 73 -138 14 -25 37 -65 50 -90
13 -24 31 -55 41 -69 10 -14 35 -51 56 -84 124 -186 168 -245 262 -344 99
-104 84 -123 -124 -146 -133 -14 -154 -13 -154 10 0 8 -10 14 -22 14 -17 0
-19 -3 -10 -12 18 -18 14 -35 -10 -42 -24 -7 -284 -37 -296 -34 -4 1 -20 -4
-35 -10 -16 -7 -92 -19 -170 -28 -77 -8 -164 -21 -192 -29 -28 -7 -94 -16
-148 -20 -84 -6 -98 -5 -103 9 -4 9 -18 16 -34 16 -23 0 -27 -3 -23 -24 6 -31
-4 -34 -155 -48 -113 -10 -126 -10 -137 5 -7 10 -22 17 -34 17 -18 0 -21 -4
-16 -19 9 -31 -23 -41 -162 -54 -114 -10 -127 -9 -138 6 -7 9 -22 17 -34 17
-18 0 -20 -3 -11 -20 15 -28 -12 -39 -132 -50 -136 -13 -182 -20 -246 -36 -28
-7 -103 -16 -165 -20 -61 -4 -117 -11 -123 -16 -11 -8 -73 -17 -267 -37 -48
-5 -91 -11 -94 -15 -17 -17 24 -27 142 -36 171 -13 201 -18 186 -33 -17 -17
-13 -27 13 -27 17 0 23 5 22 18 -1 21 19 21 511 4 416 -14 538 -31 461 -62
-16 -6 8 -9 80 -9 85 -1 104 2 109 15 5 14 31 15 237 10 274 -8 541 -25 576
-38 24 -9 24 -10 6 -24 -18 -12 -10 -14 73 -14 75 0 96 3 106 16 11 15 40 16
356 5 328 -11 469 -23 469 -42 0 -4 -8 -13 -17 -18 -14 -8 -1 -10 50 -11 54 0
71 4 88 21 11 11 28 18 37 15 9 -2 130 -8 267 -11 262 -7 487 -20 543 -31 37
-8 41 -21 10 -34 -19 -7 -15 -9 23 -9 36 -1 50 4 60 20 14 20 17 20 203 9 154
-8 192 -8 203 3 14 14 53 118 53 142 0 9 9 34 21 56 26 53 36 131 18 145 -8 6
-34 14 -59 17 -26 3 -51 13 -60 25 -22 27 -66 36 -74 16 -5 -13 -14 -15 -44
-9 -20 4 -55 7 -77 6 -22 -1 -67 8 -99 19 -33 11 -72 20 -89 20 -38 0 -228 58
-246 76 -12 11 -12 16 -1 28 11 14 9 16 -9 16 -11 0 -21 -4 -21 -10 0 -5 -16
-10 -35 -10 -49 0 -322 135 -350 173 -5 7 -21 20 -36 28 -110 61 -208 140
-324 260 -50 52 -99 106 -110 120 -11 15 -48 63 -82 108 -35 45 -63 85 -63 89
0 4 -25 40 -55 81 -50 67 -59 89 -58 144 0 9 -4 17 -8 17 -4 0 -9 21 -11 48
-3 40 -6 47 -25 50 -17 3 -23 10 -23 28 0 19 -5 23 -22 21 -17 -2 -28 10 -54
59 -17 34 -35 76 -39 93 -4 17 -15 36 -25 41 -10 5 -24 27 -30 47 -7 21 -21
52 -30 68 -29 48 -36 106 -16 121 26 18 18 68 -11 72 -21 3 -23 9 -24 70 0 42
-3 60 -8 48 -7 -18 -9 -16 -24 14 -9 18 -17 51 -17 72 0 34 -3 39 -19 33 -27
-8 -39 12 -56 96 -8 41 -22 94 -30 119 -8 25 -17 82 -21 127 -6 71 -4 84 10
89 13 5 16 21 15 88 0 52 -3 74 -9 61 -15 -38 -30 30 -30 138 0 92 -2 104 -21
121 -21 17 -21 24 -17 194 3 120 8 185 17 201 11 20 11 34 1 78 -17 68 -3 108
35 100 23 -4 25 -1 25 33 0 30 -4 39 -21 43 -17 4 -20 10 -14 24 5 10 10 52
12 93 1 41 9 95 17 120 8 25 22 80 30 123 19 94 21 97 50 97 20 0 24 6 30 46
3 26 6 62 6 80 0 20 8 41 19 51 13 13 22 45 31 106 9 66 18 95 36 116 13 16
24 40 24 53 0 35 18 89 34 102 7 6 19 28 26 49 6 20 18 37 26 37 19 0 19 -72
0 -109 -8 -15 -18 -52 -22 -82 -3 -30 -14 -79 -24 -109 -10 -30 -21 -84 -25
-120 -4 -36 -13 -90 -20 -120 -21 -84 -34 -309 -36 -580 -1 -299 5 -412 26
-510 9 -41 20 -111 26 -155 10 -90 40 -232 71 -345 11 -41 24 -91 28 -110 11
-53 19 -66 46 -78 l24 -12 0 140 0 140 -25 0 c-32 0 -40 30 -31 119 3 36 13
147 22 246 8 99 24 212 34 252 11 40 22 98 26 130 3 32 11 76 19 98 7 22 18
63 25 90 6 28 20 74 31 103 10 29 19 60 19 70 0 9 12 40 25 67 14 28 25 56 25
64 0 8 11 33 24 55 13 23 27 55 30 73 4 17 14 37 22 44 9 7 24 30 35 51 11 21
24 36 29 33 14 -9 12 -62 -4 -93 -7 -15 -17 -49 -20 -75 -8 -51 -51 -175 -67
-192 -5 -5 -9 -21 -9 -36 0 -15 -4 -39 -10 -53 -6 -17 -6 -35 0 -51 13 -34 4
-52 -28 -58 -26 -5 -27 -9 -24 -48 3 -27 12 -49 25 -59 19 -16 19 -20 7 -83
-7 -37 -16 -70 -21 -73 -17 -10 -9 -75 11 -101 17 -21 20 -41 20 -114 0 -78
-2 -90 -20 -101 -16 -10 -20 -24 -20 -70 0 -54 1 -58 24 -58 37 0 47 -21 56
-122 5 -51 16 -113 25 -137 8 -24 20 -72 25 -106 6 -35 19 -83 30 -106 11 -24
20 -57 20 -72 0 -15 11 -49 24 -75 13 -26 27 -63 31 -82 10 -49 198 -445 217
-457 5 -2 21 -27 36 -55 33 -62 41 -75 70 -115 12 -17 22 -34 22 -37 0 -22
217 -282 309 -369 39 -37 71 -72 71 -77 0 -6 7 -10 15 -10 8 0 29 -12 45 -27
52 -49 290 -213 308 -213 5 0 24 -16 43 -35 31 -32 38 -35 74 -29 32 4 46 1
68 -16 15 -12 45 -31 65 -41 30 -15 33 -18 15 -19 -13 0 -23 -4 -23 -9 0 -16
-24 -19 -105 -10 -102 11 -226 44 -241 64 -7 9 -10 25 -7 35 5 18 0 20 -41 20
-25 0 -46 -4 -46 -10 0 -39 -116 -4 -314 96 -125 64 -169 90 -249 150 -31 24
-62 44 -67 44 -5 0 -14 9 -20 20 -12 23 -50 27 -50 6 0 -8 9 -18 20 -21 11 -3
20 -10 20 -15 0 -5 23 -36 50 -69 28 -33 50 -62 50 -64 0 -6 139 -155 233
-248 61 -62 77 -83 77 -107 0 -24 5 -31 26 -36 19 -5 25 -12 21 -26 -4 -16 1
-19 32 -22 30 -3 36 -7 35 -25 0 -19 5 -23 28 -23 26 0 32 -8 29 -37 -1 -6 13
-13 31 -15 25 -2 34 -8 36 -25 4 -27 24 -30 43 -7 16 20 45 13 109 -27 42 -26
50 -36 50 -60 0 -25 4 -29 30 -30 17 -1 35 -3 40 -4 6 -1 14 -3 19 -4 5 0 13
-10 16 -21 4 -14 15 -20 36 -20 16 0 46 -9 66 -20 21 -11 57 -20 81 -20 38 0
43 -2 37 -19 -7 -22 24 -39 36 -20 11 19 99 3 126 -23 33 -31 45 -15 83 105
18 56 43 134 56 174 13 39 24 79 24 88 0 8 9 33 20 54 11 22 22 59 26 83 4 23
15 59 25 80 10 20 21 56 25 80 4 23 13 56 21 72 14 28 32 81 73 226 25 86 58
187 76 230 7 19 20 62 28 95 7 33 20 74 28 90 9 17 19 48 22 70 4 21 16 55 26
75 10 19 21 55 25 80 4 24 15 62 25 85 9 22 20 58 24 80 4 22 16 58 26 80 10
23 22 54 25 70 8 34 24 85 100 317 30 92 55 176 55 186 0 10 7 27 15 38 8 10
14 26 15 34 0 18 -95 65 -160 79 -49 11 -148 43 -220 72 -25 10 -71 23 -102
29 -64 13 -88 31 -68 55 7 9 8 15 2 15 -5 0 -12 -7 -16 -15 -7 -20 -40 -19
-94 2 -37 14 -43 20 -39 40 5 27 -5 30 -23 7 -16 -18 -72 -12 -135 15 -22 10
-60 23 -85 30 -25 7 -56 19 -70 26 -14 7 -45 16 -70 20 -25 4 -76 20 -115 35
-38 16 -83 31 -99 35 -23 5 -27 10 -23 30 4 23 1 25 -29 25 -19 0 -34 -4 -34
-10 0 -11 -39 -13 -64 -4 -9 3 -16 12 -16 19 0 20 122 168 157 190 18 11 32
27 33 36 0 8 28 47 63 86 142 160 182 207 214 249 19 24 41 44 49 44 8 0 18 8
21 18 7 19 52 82 70 97 6 6 53 57 103 115 51 58 101 108 111 112 10 4 19 15
19 25 0 10 22 41 48 69 65 70 224 252 241 276 7 11 24 23 37 28 13 5 24 18 24
27 0 17 29 52 204 247 33 37 69 81 79 97 12 19 27 29 43 29 18 0 24 5 24 21 0
26 32 65 233 285 31 35 57 68 57 74 0 6 14 16 30 21 17 6 30 18 30 26 0 14
103 149 119 155 4 2 32 32 63 68 30 36 76 88 101 115 26 28 47 54 47 58 0 4
17 25 38 46 20 21 73 80 117 132 44 51 106 120 138 152 31 33 57 64 57 69 0 5
28 40 63 77 92 102 173 193 197 224 12 15 28 27 36 27 8 0 14 7 14 15 0 15 79
116 124 160 12 12 61 67 111 123 49 56 93 102 97 102 5 0 8 6 8 13 0 8 17 32
38 53 65 69 257 286 265 301 5 8 20 18 33 23 14 6 24 18 24 30 0 11 9 25 20
32 11 7 20 21 20 31 0 9 11 23 25 29 14 6 25 17 25 23 0 7 9 20 20 30 21 19
27 45 10 45 -6 0 -16 -11 -22 -25 -6 -13 -19 -27 -30 -30 -10 -4 -18 -13 -18
-21 0 -8 -10 -18 -22 -23 -13 -5 -67 -51 -121 -103 -122 -116 -147 -138 -162
-138 -6 0 -17 -10 -22 -23 -6 -13 -34 -43 -63 -68 -29 -24 -69 -59 -89 -78
-31 -30 -229 -213 -293 -271 -13 -12 -32 -30 -43 -40 -12 -11 -26 -20 -33 -20
-6 0 -17 -11 -24 -24 -7 -13 -47 -52 -88 -86 -41 -34 -79 -68 -85 -75 -8 -10
-189 -176 -272 -250 -10 -9 -43 -39 -73 -67 -30 -27 -86 -77 -125 -111 -38
-33 -97 -86 -130 -117 -33 -31 -94 -88 -135 -125 -41 -38 -79 -75 -83 -82 -4
-7 -13 -13 -19 -13 -6 0 -25 -15 -42 -32 -17 -18 -67 -64 -111 -103 -44 -38
-111 -100 -150 -136 -38 -36 -101 -94 -140 -129 -38 -35 -90 -83 -115 -107
-25 -24 -50 -43 -57 -43 -7 0 -18 -11 -25 -24 -24 -43 -191 -177 -205 -163 -8
9 29 71 78 130 27 32 49 62 49 66 0 4 11 13 25 19 14 7 25 20 25 31 0 11 5 23
10 26 6 4 22 25 36 47 21 33 30 39 49 34 23 -6 35 8 35 40 0 8 20 46 45 83 30
47 52 71 71 75 20 5 25 11 21 29 -4 15 6 36 29 67 19 25 42 57 52 72 9 15 27
32 39 37 14 7 23 19 23 34 0 14 16 39 41 62 22 22 47 52 54 66 8 15 26 30 40
33 18 5 25 13 25 30 0 33 49 106 71 106 10 0 21 5 24 10 3 6 15 10 26 10 16 0
19 7 19 46 0 36 7 53 32 85 31 38 77 69 104 69 9 0 13 12 12 33 -2 48 11 77
33 77 10 0 20 -6 20 -12 1 -7 4 3 8 22 4 22 12 35 21 35 8 0 17 9 20 20 3 11
16 21 28 23 14 2 22 10 22 22 0 10 4 21 10 25 5 3 7 11 5 18 -7 21 39 102 60
105 11 3 24 10 28 18 4 8 17 14 29 14 14 0 18 5 15 15 -4 8 -2 17 3 20 6 4 10
17 10 31 0 54 76 134 129 134 14 0 14 2 1 10 -13 8 -13 11 2 22 9 7 18 24 20
38 2 14 11 26 23 30 12 3 20 13 20 25 0 13 8 21 23 23 14 2 22 10 22 23 0 11
6 22 14 25 8 3 12 12 9 20 -4 10 2 17 15 21 19 5 29 32 35 103 l2 25 -160 17
c-88 9 -206 17 -263 17 l-102 1 6 25 c6 23 4 25 -32 25 l-39 -1 23 -19 c12
-10 19 -21 14 -24 -13 -8 -162 -24 -327 -36 -82 -6 -168 -15 -190 -21 -71 -19
-195 -38 -210 -33 -7 3 -16 12 -19 20 -3 8 -14 14 -25 14 -17 0 -20 -5 -15
-29 6 -28 4 -30 -32 -40 -93 -24 -112 -24 -126 -2 -7 12 -18 21 -25 21 -16 0
-16 -6 -3 -30 13 -25 -6 -35 -96 -51 -38 -7 -76 -18 -84 -25 -8 -6 -42 -18
-75 -25 -33 -7 -67 -18 -75 -24 -8 -7 -37 -18 -65 -25 -27 -7 -64 -21 -81 -31
-17 -11 -45 -19 -62 -19 -20 0 -40 -9 -56 -25 -14 -14 -33 -25 -43 -25 -10 -1
-43 -14 -73 -30 -60 -33 -101 -37 -191 -20 -66 13 -86 29 -70 59 10 18 9 21
-8 21 -10 0 -21 -7 -25 -15 -8 -22 -27 -18 -61 13 -40 36 -136 150 -154 182
-75 131 -91 161 -91 172 0 7 -9 30 -20 51 -11 20 -30 83 -42 140 -20 93 -23
135 -26 462 -3 337 -2 367 18 465 20 96 58 217 82 263 5 10 19 37 31 60 27 55
50 87 120 173 54 67 170 178 206 198 9 5 26 17 37 28 12 11 37 28 55 38 85 47
80 45 94 27 17 -24 38 -22 30 3 -10 31 10 48 73 60 31 7 64 18 72 25 8 7 49
18 90 24 71 11 76 11 92 -9 9 -11 27 -20 39 -20 18 0 20 3 11 12 -24 24 -11
37 46 49 69 14 413 7 455 -10 24 -9 26 -14 17 -31 -10 -18 -8 -20 18 -20 21 0
31 6 35 20 3 11 13 20 24 20 64 -1 313 -30 336 -39 24 -9 26 -14 17 -31 -10
-19 -8 -20 31 -20 27 0 46 6 54 17 11 15 30 15 240 3 222 -12 338 -10 585 11
110 9 116 9 132 -11 9 -11 26 -20 37 -20 18 0 20 3 12 19 -18 32 9 41 175 57
157 15 159 15 176 -5 9 -12 28 -21 42 -21 20 0 25 4 23 22 -3 31 36 39 208 41
162 1 201 -8 192 -44 -4 -16 0 -19 24 -19 17 0 32 6 35 15 11 28 176 10 188
-21 3 -8 19 -14 38 -14 29 0 93 -28 213 -94 22 -12 44 -32 50 -44 6 -13 19
-22 31 -22 25 0 174 -136 219 -200 17 -23 38 -50 47 -61 31 -33 113 -190 128
-244 6 -22 19 -60 30 -85 11 -28 21 -85 25 -151 7 -103 7 -107 -14 -114 -21
-6 -21 -10 -21 -260 0 -249 0 -255 21 -266 21 -11 21 -16 15 -120 -9 -142 -67
-323 -136 -429 -9 -14 -30 -45 -45 -70 -27 -41 -51 -70 -98 -117 -61 -62 -75
-72 -102 -79 -16 -4 -37 -13 -46 -20 -8 -8 -49 -18 -91 -24 -63 -9 -83 -8
-123 5 -26 9 -48 15 -50 13 -8 -8 -65 -170 -65 -185 0 -8 -7 -29 -15 -46 -14
-30 -31 -84 -76 -237 -18 -62 -59 -190 -89 -280 -9 -24 -25 -76 -71 -220 -11
-36 -29 -94 -39 -130 -11 -36 -26 -85 -34 -110 -32 -94 -48 -147 -66 -212 -10
-36 -25 -79 -33 -95 -8 -15 -18 -48 -22 -73 -4 -25 -15 -61 -25 -80 -10 -19
-23 -59 -29 -89 -6 -30 -16 -59 -21 -65 -4 -6 -16 -42 -24 -80 -9 -38 -21 -75
-26 -81 -8 -10 -18 -43 -70 -225 -11 -36 -28 -89 -39 -118 -12 -29 -21 -61
-21 -73 0 -11 -8 -36 -19 -57 -10 -20 -21 -55 -25 -77 -4 -22 -15 -60 -26 -85
-10 -25 -33 -92 -50 -150 -18 -58 -40 -129 -51 -159 -18 -49 -18 -56 -4 -84 8
-17 12 -39 9 -50 -6 -19 -2 -20 85 -15 95 6 118 -2 105 -36 -5 -13 1 -16 33
-16 21 0 44 5 50 11 12 12 67 6 92 -10 10 -7 11 -13 2 -30 -10 -18 -9 -21 10
-21 12 0 30 7 39 15 15 13 25 14 64 4 51 -13 64 -25 47 -42 -15 -15 -14 -27 4
-27 9 0 18 7 21 15 10 26 129 10 140 -19 3 -8 30 -16 61 -20 31 -4 68 -13 82
-21 14 -8 53 -21 86 -29 33 -8 83 -22 110 -31 28 -9 88 -28 135 -42 47 -14
108 -34 135 -44 28 -10 65 -22 82 -25 47 -9 58 -27 43 -64 -7 -17 -18 -34 -24
-38 -17 -10 -206 -221 -268 -298 -39 -49 -246 -286 -287 -329 -15 -16 -52 -59
-81 -95 -29 -36 -60 -72 -69 -80 -9 -8 -45 -49 -80 -90 -35 -41 -72 -79 -81
-84 -10 -4 -21 -18 -24 -30 -3 -11 -27 -44 -53 -72 -27 -28 -88 -98 -138 -155
-113 -130 -132 -149 -144 -149 -5 0 -13 -11 -18 -25 -8 -23 -42 -65 -195 -232
-37 -40 -75 -86 -84 -102 -10 -16 -28 -34 -41 -40 -13 -6 -27 -21 -32 -33 -5
-13 -40 -57 -77 -99 -147 -164 -202 -227 -288 -328 -49 -58 -92 -108 -96 -111
-4 -3 -57 -63 -119 -135 -178 -207 -203 -235 -266 -304 -33 -36 -71 -80 -83
-98 -12 -17 -31 -34 -41 -38 -11 -3 -22 -16 -25 -29 -3 -12 -41 -60 -84 -107
-43 -46 -109 -120 -146 -164 -38 -44 -77 -89 -88 -100 -38 -41 -196 -224 -278
-320 -47 -55 -138 -158 -202 -229 -65 -70 -118 -135 -118 -142 0 -35 33 -12
197 133 43 37 80 71 83 74 3 3 68 59 145 124 77 65 145 123 150 129 6 7 84 75
175 152 192 161 427 362 520 444 112 98 134 116 153 123 9 4 17 11 17 16 0 5
30 33 68 64 37 30 80 66 95 81 15 14 112 97 216 185 103 87 194 165 202 173 8
8 75 65 149 128 74 62 144 122 155 132 11 10 33 29 48 43 16 14 94 81 175 149
81 67 179 152 218 188 39 36 82 68 96 71 16 4 28 16 32 32 3 13 19 31 34 39
16 8 34 22 41 30 19 22 51 20 51 -3 0 -10 -7 -24 -16 -32 -8 -7 -22 -25 -29
-40 -9 -17 -26 -30 -45 -34 -21 -5 -30 -12 -30 -26 0 -30 -16 -55 -99 -156
-42 -51 -121 -149 -176 -218 -55 -70 -143 -180 -195 -245 -52 -65 -132 -165
-177 -222 -44 -57 -255 -320 -467 -586 -212 -266 -386 -491 -386 -499 0 -14
53 -15 516 -11 496 5 517 4 521 -14 4 -11 14 -18 30 -18 19 0 23 4 18 19 -3
11 -2 21 2 24 24 15 700 52 730 40 7 -3 13 -11 13 -19 0 -10 16 -14 61 -14 55
0 60 2 48 16 -28 34 8 38 446 54 154 6 311 12 348 15 58 3 71 1 88 -16 25 -25
130 -29 109 -4 -7 9 -10 19 -6 22 13 13 125 21 475 34 328 12 355 11 366 -4
10 -14 29 -17 96 -16 46 0 78 3 72 6 -21 8 -15 32 10 37 48 10 343 26 573 32
217 6 242 5 247 -10 5 -13 22 -16 88 -16 69 0 80 2 70 14 -29 35 13 39 677 65
134 6 249 8 257 4 8 -3 15 -11 15 -19 0 -9 11 -14 32 -14 25 0 29 3 20 12 -7
7 -12 15 -12 19 0 9 69 19 200 29 118 8 163 24 168 57 3 18 -2 22 -30 25 -22
2 -38 -3 -48 -14 -14 -16 -26 -16 -128 -7 -137 12 -166 21 -157 49 5 16 2 20
-16 20 -12 0 -30 -7 -40 -16 -16 -15 -31 -15 -136 -4 -65 6 -125 15 -133 20
-13 7 -87 16 -265 35 -33 4 -70 13 -83 21 -12 8 -26 13 -30 10 -13 -8 -278 23
-309 36 -15 6 -46 13 -69 14 -106 7 -244 25 -269 34 -27 10 -27 11 -10 30 17
19 17 20 0 20 -10 0 -23 -8 -30 -17 -11 -15 -24 -16 -141 -6 -141 12 -195 26
-176 45 18 18 15 28 -8 28 -10 0 -23 -7 -28 -16 -8 -14 -23 -15 -118 -9 -136
9 -180 22 -177 53 2 18 -2 22 -27 22 -20 0 -30 -5 -30 -15 0 -18 -34 -19 -168
-5 -108 12 -136 23 -127 51 5 16 1 19 -23 19 -18 0 -32 -6 -36 -16 -5 -14 -18
-16 -89 -10 -145 12 -179 18 -198 37 -11 11 -19 23 -19 28 0 5 20 29 44 53 24
23 71 77 105 118 33 41 68 82 77 92 9 9 23 30 32 46 10 17 41 65 70 108 29 42
60 91 69 108 9 17 19 33 22 36 11 8 111 195 170 315 29 61 64 132 77 158 13
27 24 54 24 61 0 6 9 30 20 51 11 22 27 62 35 89 8 27 19 54 24 60 5 6 16 36
24 66 9 30 23 75 31 100 29 86 65 215 75 273 6 31 15 65 20 76 6 10 15 61 21
112 7 52 18 119 26 149 24 95 34 274 34 600 0 328 -11 510 -34 595 -8 28 -17
81 -20 120 -10 98 -69 341 -122 495 -8 25 -22 70 -31 100 -8 30 -19 60 -23 65
-4 6 -15 35 -24 66 -9 31 -23 64 -31 75 -8 10 -15 25 -15 31 0 26 -146 325
-206 423 -18 30 -36 62 -40 70 -11 24 -77 132 -107 175 -15 22 -44 65 -65 95
-112 165 -215 288 -322 384 -30 27 -98 90 -150 140 -52 51 -138 127 -190 169
-149 122 -153 125 -146 143 5 13 1 15 -16 11 -27 -7 -105 53 -94 71 13 21 70
23 131 5 47 -15 61 -23 63 -41 4 -26 33 -30 52 -7 18 21 59 19 142 -9 40 -13
92 -29 115 -35 49 -14 58 -23 43 -51 -9 -17 -8 -20 9 -20 10 0 21 7 25 15 8
21 58 19 87 -3 37 -28 110 -55 122 -43 13 13 34 192 47 401 5 96 15 193 20
215 5 22 14 114 20 205 12 178 24 304 40 415 5 39 14 147 20 240 6 94 15 190
20 215 5 25 14 124 20 220 6 96 15 202 20 235 15 95 38 366 45 525 8 175 -7
355 -35 418 -11 25 -20 51 -20 60 0 8 -13 44 -30 79 -16 34 -30 65 -30 68 0 3
-8 18 -19 33 -10 15 -40 60 -66 101 -52 82 -189 229 -256 276 -23 17 -55 42
-70 58 -15 15 -33 27 -41 27 -8 0 -29 11 -48 25 -19 14 -39 25 -45 25 -7 0
-20 9 -29 19 -10 11 -32 23 -50 27 -17 3 -38 12 -46 19 -8 7 -42 21 -75 30
-33 10 -65 22 -72 27 -10 8 -135 34 -278 58 -27 5 -1152 9 -2500 9 -1347 1
-2458 1 -2467 1 -11 0 -18 10 -21 33 -2 17 -5 24 -5 15z m5069 -339 c19 -7 41
-17 49 -24 8 -7 34 -15 57 -18 25 -3 56 -16 74 -31 17 -14 39 -26 49 -26 10 0
27 -10 37 -22 10 -13 28 -28 38 -34 12 -7 19 -21 18 -36 -1 -19 6 -26 32 -34
27 -8 35 -8 39 3 3 7 9 13 14 13 14 0 202 -181 228 -220 85 -127 104 -157 104
-169 0 -8 7 -22 15 -31 17 -18 45 -116 45 -155 0 -18 -5 -25 -20 -25 -28 0
-28 -50 -1 -57 17 -4 20 -16 24 -101 2 -54 9 -115 15 -136 8 -29 8 -45 0 -60
-10 -19 -13 -18 -43 19 -18 21 -38 57 -45 79 -7 23 -20 55 -31 72 -10 17 -19
38 -19 46 0 9 -7 22 -17 29 -9 8 -25 33 -35 56 -10 23 -23 45 -29 49 -6 3 -14
16 -20 27 -17 40 -64 114 -106 171 -24 30 -43 59 -43 63 0 4 -9 16 -20 28 -11
11 -57 65 -103 120 -83 101 -186 207 -312 322 -58 53 -66 65 -55 78 15 18 18
18 61 4z m-5996 -1329 c8 -47 15 -100 15 -118 0 -18 6 -43 14 -55 19 -29 26
-143 9 -139 -7 1 -13 -8 -13 -19 0 -18 2 -20 16 -9 12 11 18 11 30 -1 15 -16
44 -134 44 -186 0 -18 5 -44 12 -58 9 -19 8 -30 -1 -48 -8 -16 -9 -36 -2 -72
5 -27 7 -53 4 -58 -3 -5 13 -25 36 -46 33 -30 41 -45 41 -72 0 -19 7 -59 15
-89 9 -30 22 -89 30 -130 9 -41 24 -104 34 -140 11 -36 22 -92 26 -125 4 -33
13 -75 20 -92 8 -18 21 -72 29 -120 8 -49 22 -108 31 -132 8 -24 15 -55 15
-70 0 -15 7 -51 16 -81 8 -30 21 -86 29 -123 7 -40 21 -77 33 -90 16 -17 18
-26 11 -39 -8 -15 -6 -18 13 -18 13 0 29 9 36 20 12 19 19 20 120 15 145 -8
172 -13 172 -31 0 -26 -42 -73 -70 -79 -15 -3 -32 -17 -38 -30 -7 -14 -16 -25
-21 -25 -4 0 -37 -23 -72 -51 -35 -28 -77 -61 -94 -74 -16 -13 -73 -58 -125
-99 -52 -41 -113 -90 -136 -110 -44 -38 -65 -44 -82 -23 -16 18 -39 202 -52
397 -6 91 -17 206 -25 255 -7 50 -19 166 -25 259 -6 94 -17 211 -24 260 -8 50
-20 178 -27 285 l-12 195 21 14 c19 13 22 24 22 93 0 76 -1 79 -23 79 -44 0
-65 53 -32 80 24 20 20 102 -5 118 -17 10 -20 22 -19 84 1 39 5 85 10 102 12
40 -8 153 -33 186 -23 32 -33 137 -23 245 6 66 9 75 21 64 7 -8 20 -53 29 -99z
m5591 -2449 c32 -22 74 -44 92 -47 18 -4 40 -16 50 -28 9 -12 32 -33 49 -46
18 -13 35 -31 38 -41 3 -9 19 -19 35 -23 21 -4 30 -11 30 -26 0 -15 7 -20 25
-20 14 0 25 5 25 10 0 17 33 11 56 -11 13 -12 32 -27 42 -33 60 -35 155 -104
216 -158 142 -124 360 -356 439 -468 10 -14 42 -59 72 -100 93 -127 120 -197
100 -257 -6 -20 -4 -23 19 -23 22 0 26 -4 26 -30 0 -28 2 -30 20 -20 11 6 24
9 29 6 13 -9 131 -261 131 -283 0 -4 11 -29 24 -55 13 -25 27 -71 30 -101 4
-30 16 -72 27 -93 23 -46 25 -92 4 -100 -25 -10 -17 -34 11 -34 30 0 48 -36
58 -117 4 -28 13 -67 21 -86 8 -19 17 -76 20 -128 3 -52 9 -120 14 -152 7 -54
1 -81 -14 -57 -14 23 -25 7 -25 -40 0 -51 6 -60 28 -38 8 8 14 4 22 -17 17
-46 10 -70 -22 -70 l-28 1 0 -88 c0 -86 1 -88 24 -88 30 0 37 -19 25 -64 -9
-33 -12 -35 -31 -25 l-21 11 8 -143 c10 -175 10 -178 -3 -259 -32 -195 -37
-210 -72 -210 -10 0 -20 -6 -23 -12 -8 -22 -20 81 -15 125 3 23 15 63 27 90
23 51 20 68 -22 114 -17 19 -19 27 -9 48 7 14 12 35 12 47 0 17 4 19 25 14
l25 -6 0 75 0 75 -30 0 c-38 0 -37 -2 -50 230 -5 102 -17 217 -26 255 -9 39
-19 109 -23 157 -5 57 -13 94 -23 105 -9 10 -22 53 -29 97 -12 77 -12 79 11
96 29 22 22 70 -10 70 -18 0 -20 7 -20 59 0 72 -6 91 -30 91 -15 0 -20 9 -22
43 -2 34 -6 41 -21 39 -26 -4 -44 13 -58 56 -6 20 -31 79 -55 130 -24 51 -44
99 -44 105 0 7 -4 17 -9 23 -5 5 -40 63 -76 129 -37 66 -78 134 -91 152 -13
17 -24 35 -24 38 0 4 -20 35 -45 69 -25 35 -45 69 -45 75 0 6 -12 21 -26 34
-14 12 -38 42 -52 67 -36 63 -75 110 -89 110 -7 0 -24 18 -39 41 -24 39 -25
42 -8 60 16 18 16 19 -2 20 -10 1 -29 0 -42 -1 -29 -2 -121 86 -122 116 0 54
-12 82 -36 87 -13 2 -24 0 -24 -4 0 -22 -40 -4 -86 39 -28 26 -86 79 -129 117
-43 39 -92 83 -109 98 -17 15 -49 40 -71 55 -22 15 -42 30 -43 35 -2 4 -21 17
-43 27 -21 11 -39 25 -39 30 0 5 -16 16 -35 24 -25 11 -35 21 -35 37 0 19 4
21 38 17 22 -3 63 -23 98 -47z m1587 -3636 c-1 -28 -10 -67 -22 -90 -12 -21
-21 -48 -21 -58 0 -23 -28 -77 -39 -77 -24 0 -27 93 -5 175 20 78 39 107 67
103 20 -3 22 -9 20 -53z"/>
<path d="M1794 2171 c17 -19 17 -20 -11 -34 -15 -8 -50 -19 -77 -26 -61 -15
-136 -78 -176 -147 -17 -28 -30 -58 -30 -65 0 -8 -7 -27 -16 -44 -8 -16 -22
-53 -29 -81 -7 -29 -20 -65 -28 -80 -8 -16 -19 -51 -26 -77 -6 -27 -18 -59
-26 -70 -7 -12 -17 -40 -21 -62 -3 -22 -10 -44 -14 -50 -5 -5 -16 -35 -25 -65
-10 -30 -28 -82 -40 -115 -12 -33 -28 -90 -36 -127 -11 -58 -10 -72 4 -110 11
-27 28 -49 47 -60 21 -12 30 -25 30 -43 0 -23 4 -25 43 -25 24 0 47 4 53 9 5
5 90 12 189 15 99 4 215 9 257 12 70 5 78 4 90 -15 19 -31 36 -26 34 10 -1 29
3 33 44 47 27 9 45 11 47 5 15 -43 24 -46 186 -45 86 0 166 3 177 7 15 5 20
15 20 41 0 41 34 169 61 227 10 23 19 51 19 62 0 11 9 36 19 56 11 20 23 54
27 75 4 22 17 59 30 84 13 25 24 49 24 53 0 5 11 22 25 39 18 22 25 41 25 74
l0 44 -364 0 -363 0 -5 -44 c-3 -24 -17 -69 -32 -100 -17 -36 -25 -65 -20 -78
5 -18 11 -19 48 -13 91 15 149 15 173 0 29 -19 29 -37 -2 -100 -14 -27 -25
-59 -25 -70 0 -11 -15 -47 -33 -79 -44 -82 -74 -96 -199 -96 -89 0 -99 2 -127
26 -17 14 -31 34 -31 45 0 22 37 146 53 174 6 11 19 47 28 80 27 92 60 186 80
230 10 22 21 57 24 78 4 20 11 39 15 42 5 3 16 28 25 55 18 53 41 75 66 59 23
-15 30 -10 23 16 -5 20 -1 26 21 35 29 11 564 12 605 1 18 -5 26 -15 28 -34 3
-22 8 -27 31 -27 28 0 28 1 35 72 3 39 11 77 17 85 8 8 9 36 4 78 l-7 65 -490
0 c-484 0 -491 0 -474 -19z"/>
<path d="M2907 2143 c-4 -35 -1 -59 13 -88 10 -22 26 -67 34 -100 25 -101 46
-178 62 -225 8 -25 24 -79 34 -120 10 -41 26 -95 35 -120 24 -66 22 -134 -8
-205 -13 -33 -28 -74 -32 -92 -3 -18 -15 -50 -26 -72 -10 -22 -19 -46 -19 -54
0 -8 -8 -25 -19 -38 -33 -43 -52 -87 -40 -94 13 -9 475 -9 489 0 5 3 10 32 10
63 0 31 7 70 15 85 8 16 19 47 25 70 6 23 19 62 30 87 11 25 24 63 29 85 12
47 106 163 138 171 14 4 23 14 23 25 0 11 11 24 25 31 13 6 36 29 51 52 26 39
145 165 359 380 152 153 144 140 105 176 -31 29 -35 30 -131 30 l-99 0 0 -27
c0 -50 -77 -155 -226 -308 -80 -82 -150 -158 -155 -167 -14 -25 -56 -23 -73 5
-7 12 -17 47 -21 77 -3 30 -15 74 -25 97 -18 42 -32 121 -35 198 0 22 -2 59
-3 83 l-2 42 -279 0 -278 0 -6 -47z"/>
<path d="M4401 2083 c-7 -60 -19 -121 -26 -138 -18 -37 -60 -160 -81 -235 -9
-30 -20 -60 -25 -66 -4 -5 -15 -35 -23 -65 -8 -30 -23 -76 -34 -104 -24 -60
-39 -104 -59 -165 -7 -25 -19 -58 -25 -75 -5 -16 -17 -50 -25 -75 -20 -59 -69
-159 -89 -181 -9 -10 -14 -26 -12 -35 3 -16 15 -18 111 -17 111 0 142 11 132
42 -6 20 81 317 108 366 6 11 19 47 28 80 22 75 66 203 78 230 6 11 13 31 16
45 19 75 46 104 59 63 6 -20 -1 -488 -11 -678 -4 -100 -3 -123 10 -133 11 -9
58 -12 173 -10 154 3 159 4 170 26 6 12 20 33 31 45 18 20 47 61 123 177 14
20 39 57 55 80 48 68 58 84 88 134 16 25 33 46 38 46 5 0 15 15 24 33 8 17 35
61 60 97 24 36 55 80 67 99 30 44 85 101 98 101 14 0 12 -23 -5 -56 -8 -16
-15 -38 -15 -49 0 -11 -12 -42 -25 -70 -14 -27 -25 -58 -25 -67 0 -10 -11 -42
-25 -72 -14 -30 -25 -64 -25 -74 0 -11 -11 -44 -25 -74 -14 -29 -25 -62 -25
-73 0 -11 -9 -36 -19 -56 -11 -20 -25 -55 -31 -79 -6 -24 -20 -56 -31 -71 -10
-16 -28 -42 -39 -58 -12 -18 -16 -32 -10 -36 6 -3 42 -7 81 -8 54 -2 74 -6 83
-20 17 -22 55 -22 72 1 10 14 31 17 140 19 84 1 129 6 134 13 4 7 8 41 9 77 1
41 8 78 20 102 11 20 23 55 26 76 4 22 16 54 25 70 10 17 22 48 25 70 4 22 15
54 23 70 8 17 21 50 28 75 19 63 63 191 75 215 5 11 16 43 24 70 42 144 104
293 131 316 9 7 14 30 14 60 l0 49 -285 0 -285 0 0 -30 c0 -20 -7 -34 -21 -42
-11 -7 -29 -30 -40 -50 -11 -21 -23 -38 -27 -38 -5 0 -16 -15 -25 -32 -9 -18
-33 -53 -52 -78 -19 -25 -38 -52 -42 -60 -15 -32 -85 -130 -94 -130 -5 0 -9
-5 -9 -11 0 -13 -68 -120 -82 -130 -5 -3 -17 -21 -26 -39 -20 -39 -65 -75 -81
-66 -15 10 -13 56 4 86 8 14 14 42 15 63 0 30 4 40 20 44 18 5 20 14 20 88 0
77 -1 83 -19 78 -35 -9 -44 29 -37 144 7 94 6 106 -13 131 -12 18 -18 37 -14
50 l5 22 -284 0 -285 0 -12 -107z"/>
<path d="M6350 2175 c0 -8 -11 -22 -25 -31 -19 -13 -25 -25 -25 -55 0 -55 -18
-139 -39 -179 -10 -19 -22 -53 -26 -75 -4 -21 -14 -53 -22 -70 -9 -16 -22 -50
-29 -75 -7 -25 -27 -83 -44 -130 -17 -47 -40 -112 -51 -145 -35 -112 -69 -210
-84 -242 -8 -17 -15 -38 -15 -46 0 -17 -55 -122 -82 -156 -33 -43 -15 -46 257
-41 l250 5 6 87 c4 52 12 96 21 110 9 13 23 52 32 87 9 35 28 81 44 103 l27
40 313 0 c226 1 316 -2 324 -10 7 -7 21 -12 31 -12 15 0 18 5 13 25 -6 22 -1
27 41 49 92 46 151 139 199 311 7 28 18 59 24 70 11 22 58 157 67 193 3 14 -1
30 -10 40 -9 9 -20 29 -25 43 -9 23 -39 39 -121 65 -9 3 -11 13 -7 29 l6 25
-525 0 c-456 0 -525 -2 -525 -15z m681 -238 c42 -28 46 -45 21 -110 -11 -29
-25 -68 -32 -87 -7 -19 -19 -54 -27 -78 -9 -23 -31 -56 -50 -72 l-34 -30 -137
0 c-75 0 -143 4 -151 9 -18 11 -7 80 24 146 13 28 26 67 30 88 4 21 18 53 31
73 13 19 24 41 24 49 0 26 35 34 151 35 105 0 119 -2 150 -23z"/>
<path d="M7958 2165 c4 -21 -1 -27 -29 -39 -19 -8 -53 -17 -76 -21 -24 -4 -46
-13 -50 -20 -5 -7 -21 -19 -38 -28 -38 -19 -125 -119 -125 -142 0 -4 -11 -30
-24 -58 -24 -51 -55 -139 -81 -228 -7 -26 -20 -60 -28 -75 -8 -16 -18 -45 -22
-64 -4 -19 -18 -58 -31 -87 -13 -28 -24 -61 -24 -73 0 -11 -10 -40 -22 -63
-16 -31 -23 -65 -26 -134 -4 -81 -2 -96 17 -127 14 -22 32 -37 51 -41 33 -7
53 -35 44 -59 -5 -13 2 -16 38 -16 24 0 48 4 54 9 5 5 124 12 264 15 140 3
312 8 382 12 121 5 127 5 140 -15 8 -13 23 -21 39 -21 22 0 26 4 22 24 -5 26
27 56 60 56 20 0 68 35 125 92 34 34 78 108 99 168 6 19 28 80 48 135 20 55
42 120 49 145 7 25 20 59 29 75 8 17 19 49 22 70 4 22 15 56 25 75 10 19 23
60 30 90 18 76 27 92 51 85 17 -6 19 -1 19 54 0 57 -1 60 -27 63 -17 2 -32 13
-43 33 -17 31 -36 44 -104 70 -34 13 -37 18 -32 40 l6 25 -418 0 -419 0 5 -25z
m489 -231 c38 -28 41 -72 10 -154 -14 -36 -32 -85 -40 -110 -21 -63 -36 -106
-63 -178 -13 -34 -24 -70 -24 -80 0 -10 -9 -35 -19 -56 -11 -21 -23 -52 -26
-69 -4 -18 -21 -56 -38 -85 -46 -77 -83 -92 -225 -92 -123 0 -151 8 -176 51
-15 25 -15 31 -2 57 8 15 18 45 22 67 4 22 18 62 30 90 13 27 24 59 24 70 0
11 12 43 25 70 14 28 25 59 25 70 0 11 7 33 15 49 8 16 22 52 30 80 16 54 54
152 69 174 6 10 20 11 48 7 38 -7 39 -6 29 13 -6 12 -11 23 -11 27 0 16 56 24
157 22 96 -2 116 -5 140 -23z"/>
<path d="M9132 2133 c-6 -32 -14 -132 -18 -221 -3 -90 -9 -175 -14 -188 -10
-25 -24 -31 -35 -14 -12 20 -25 -1 -25 -41 0 -32 4 -39 19 -39 26 0 29 -20 20
-125 -5 -49 -12 -162 -17 -250 -9 -167 -21 -217 -48 -194 -12 10 -14 2 -14
-54 l0 -65 43 -6 c84 -11 412 -10 435 3 12 6 31 28 42 49 19 34 30 52 90 152
11 19 33 54 48 77 15 23 56 91 91 150 35 60 75 126 88 148 99 160 102 165 118
159 14 -6 15 -25 10 -163 -4 -96 -13 -177 -22 -210 l-16 -53 -18 23 -19 24 0
-55 c0 -44 4 -58 20 -68 18 -11 19 -19 13 -120 -5 -85 -3 -109 8 -117 9 -7 92
-8 229 -5 l215 5 40 63 c22 34 53 84 69 110 16 26 39 63 51 82 12 19 48 80 80
135 32 55 66 109 75 120 9 11 22 31 29 45 6 14 23 43 36 65 13 22 36 61 50 88
14 26 29 47 34 47 4 0 16 17 25 38 23 51 48 93 74 127 12 15 22 33 22 40 0 6
11 22 25 35 14 13 25 30 25 37 0 7 20 41 45 75 37 51 45 70 45 105 l0 43 -109
0 -108 0 -5 -42 c-3 -24 -19 -73 -37 -109 -17 -36 -31 -71 -31 -76 0 -6 -7
-16 -16 -23 -8 -8 -22 -27 -29 -44 -8 -17 -35 -62 -59 -101 -25 -38 -45 -75
-46 -81 0 -6 -7 -17 -16 -24 -8 -8 -22 -27 -30 -44 -8 -17 -30 -56 -49 -86
-19 -30 -39 -69 -45 -86 -11 -31 -72 -75 -86 -61 -4 4 -2 37 4 74 7 38 17 172
23 298 6 128 17 247 24 268 11 33 11 40 -6 61 -11 13 -19 36 -19 50 l0 26
-216 0 c-213 0 -216 0 -211 -21 4 -13 -4 -31 -22 -52 -16 -18 -34 -44 -42 -58
-30 -57 -71 -126 -99 -169 -16 -25 -35 -56 -42 -70 -7 -14 -21 -38 -33 -55
-26 -39 -39 -60 -71 -115 -14 -25 -36 -63 -50 -85 -13 -22 -33 -59 -44 -82
-23 -48 -76 -85 -86 -59 -3 7 0 49 6 92 6 44 13 135 16 204 5 152 18 242 46
338 19 67 20 73 4 90 -9 10 -16 24 -16 30 0 9 -60 12 -228 12 l-228 0 -12 -57z"/>
<path d="M11271 2163 c0 -55 -21 -150 -51 -233 -17 -47 -40 -112 -50 -146 -10
-33 -24 -74 -33 -90 -8 -16 -17 -45 -21 -64 -3 -19 -15 -53 -25 -75 -19 -40
-51 -131 -77 -215 -28 -92 -57 -176 -75 -216 -11 -22 -19 -47 -19 -55 0 -8
-13 -33 -29 -55 -16 -21 -31 -48 -33 -59 -6 -38 55 -43 534 -44 286 -1 449 -5
453 -11 3 -5 19 -10 36 -10 25 0 29 4 29 28 0 16 9 37 20 47 11 10 20 24 20
30 0 7 11 28 24 48 30 44 40 86 27 120 -12 31 -46 38 -38 8 13 -51 -33 -60
-309 -61 -158 0 -223 3 -232 12 -18 18 -15 63 7 106 10 20 24 61 31 90 7 29
20 61 30 70 10 9 20 26 22 37 3 19 12 20 143 21 77 0 175 4 217 9 103 10 128
3 128 -35 0 -25 4 -30 24 -30 19 0 23 4 19 19 -3 11 7 46 22 78 22 47 54 137
55 151 0 2 -16 10 -35 18 -19 8 -35 19 -35 24 0 6 -76 10 -202 10 -249 0 -252
1 -243 48 4 20 15 53 26 74 10 20 19 44 19 52 0 32 24 65 59 81 32 14 68 16
253 13 227 -3 255 -9 243 -49 -5 -15 -1 -19 19 -19 21 0 26 5 26 25 0 14 8 42
19 63 27 55 33 87 25 153 l-7 59 -508 0 -508 0 0 -27z"/>
<path d="M12510 2163 c-1 -38 -26 -71 -42 -55 -18 18 -38 14 -38 -6 0 -11 11
-24 25 -30 23 -11 25 -16 19 -49 -3 -21 -15 -63 -26 -93 -11 -30 -25 -76 -33
-101 -7 -26 -20 -60 -28 -76 -9 -16 -19 -46 -23 -68 -4 -22 -18 -62 -30 -90
-13 -27 -24 -58 -24 -68 0 -10 -9 -35 -19 -55 -11 -21 -23 -56 -26 -77 -4 -22
-15 -53 -25 -70 -9 -16 -23 -52 -29 -80 -7 -27 -16 -54 -21 -60 -4 -5 -16 -38
-25 -72 -10 -34 -26 -70 -36 -79 -11 -9 -19 -23 -19 -29 0 -7 -9 -24 -20 -38
-14 -18 -17 -28 -9 -33 21 -12 503 -4 511 9 4 7 8 40 8 74 0 44 7 76 25 115
14 29 25 61 25 71 0 10 11 44 25 77 14 33 25 71 25 85 0 14 10 35 21 46 l22
22 16 -20 c9 -12 31 -23 49 -25 28 -4 35 -1 43 19 20 54 50 13 49 -69 0 -35 3
-130 6 -212 6 -132 5 -150 -9 -158 -27 -15 -20 -37 11 -36 15 0 136 0 269 -1
134 -1 247 0 253 4 14 8 12 32 -5 80 -8 22 -20 101 -25 175 -6 74 -16 150 -21
167 -14 43 -4 70 31 88 33 17 86 20 95 5 13 -21 32 -10 27 16 -3 19 3 34 26
57 16 18 35 50 42 72 7 22 16 45 20 50 5 6 15 35 24 65 8 30 24 82 35 115 54
158 54 162 30 220 -22 54 -31 61 -128 91 -9 3 -11 13 -7 29 l6 25 -535 0 -535
0 0 -27z m701 -226 c42 -28 47 -55 20 -113 -12 -24 -21 -52 -21 -62 0 -18 -45
-91 -64 -104 -21 -14 -48 -8 -53 12 -5 19 -14 20 -118 20 -106 0 -113 -1 -118
-21 -7 -28 -41 -21 -45 9 -2 13 3 31 12 41 8 9 20 40 27 69 6 29 22 65 35 81
13 16 24 36 24 44 0 39 27 47 149 47 106 0 121 -2 152 -23z"/>
<path d="M3153 472 c-27 -4 -47 -27 -39 -47 4 -10 20 -15 54 -15 26 0 53 -5
60 -12 16 -16 15 -59 -2 -84 -8 -11 -19 -47 -25 -81 -6 -33 -22 -88 -36 -123
-35 -89 -27 -101 68 -93 39 3 77 10 83 15 7 5 15 34 19 65 4 32 15 78 25 103
10 25 21 68 25 96 9 58 28 99 50 108 9 3 36 6 60 6 24 0 50 3 59 6 19 7 21 43
4 49 -16 5 -374 11 -405 7z"/>
<path d="M4090 444 c-6 -14 -10 -29 -10 -34 0 -5 -9 -38 -19 -72 -10 -35 -23
-81 -29 -103 -5 -22 -20 -73 -31 -114 -12 -41 -20 -80 -17 -88 7 -18 149 -18
163 0 6 6 16 41 23 77 16 80 26 100 48 100 42 0 57 -25 54 -88 -3 -89 12 -104
113 -105 99 -2 107 7 81 88 -21 69 -16 94 26 120 26 16 35 31 44 73 14 63 30
85 55 77 16 -5 19 -1 19 29 0 31 -3 36 -22 36 -13 1 -34 7 -48 15 -19 11 -72
14 -233 15 l-207 0 -10 -26z m292 -56 c41 -66 -75 -146 -139 -95 -17 12 -17
68 0 90 25 36 117 38 139 5z"/>
<path d="M5227 373 c-74 -98 -154 -208 -184 -253 -9 -14 -28 -34 -42 -46 -16
-14 -22 -27 -18 -38 17 -43 77 -24 107 33 30 60 91 84 105 41 9 -29 67 -28 87
1 10 16 20 20 36 15 17 -6 22 -15 22 -44 0 -60 9 -65 94 -65 41 1 80 4 87 8
14 9 5 150 -16 240 -8 33 -17 87 -20 119 -10 89 -6 86 -101 86 l-84 0 -73 -97z"/>
<path d="M6177 458 c-10 -8 -23 -45 -32 -88 -8 -41 -24 -102 -35 -135 -10 -33
-21 -76 -25 -95 -3 -19 -14 -50 -23 -67 -22 -43 -12 -51 73 -54 79 -4 95 2 95
35 0 13 9 43 19 67 11 24 23 67 26 94 4 28 11 57 16 66 21 42 47 164 37 176
-14 17 -129 17 -151 1z"/>
<path d="M6893 458 c-4 -7 -10 -35 -14 -63 -4 -27 -16 -77 -27 -110 -11 -33
-26 -87 -35 -120 -8 -33 -21 -75 -28 -92 -12 -29 -11 -35 4 -50 16 -16 20 -16
45 -3 22 13 28 25 33 65 10 78 68 255 84 255 8 0 19 -17 24 -37 20 -77 51
-222 51 -241 0 -33 22 -41 124 -43 72 -1 101 2 110 12 18 19 53 122 65 192 6
31 15 65 20 75 15 29 43 151 36 162 -9 14 -40 13 -53 -2 -16 -19 -50 -125 -62
-193 -11 -63 -38 -102 -64 -92 -17 7 -18 10 -40 156 -22 141 -22 141 -157 141
-75 0 -110 -4 -116 -12z"/>
<path d="M8196 454 c-9 -9 -16 -32 -16 -55 0 -22 -11 -70 -24 -107 -12 -37
-26 -89 -30 -117 -4 -27 -17 -67 -29 -88 -33 -59 -18 -73 74 -68 41 2 80 8 87
13 6 6 12 27 12 47 1 50 34 119 65 133 17 8 37 9 63 2 l37 -9 -2 -52 c-1 -29
-9 -65 -17 -81 -8 -15 -11 -33 -8 -39 4 -6 37 -13 74 -14 88 -4 100 7 122 114
9 45 22 96 28 112 6 17 18 61 28 98 10 37 24 74 30 82 24 29 -6 45 -81 45 -59
0 -70 -3 -83 -22 -9 -12 -16 -32 -16 -44 0 -11 -9 -29 -20 -39 -11 -10 -20
-28 -20 -40 0 -32 -19 -45 -65 -45 -28 0 -47 6 -58 18 -21 24 -21 26 4 88 32
75 25 84 -65 84 -54 0 -79 -4 -90 -16z"/>
<path d="M9402 441 c-15 -15 -49 -60 -77 -100 -69 -99 -119 -165 -177 -239
-45 -56 -49 -65 -36 -78 22 -22 67 -7 87 28 9 17 23 40 33 52 15 20 17 20 35
3 14 -12 36 -17 77 -17 48 0 61 4 76 22 15 19 20 20 33 9 9 -7 17 -31 19 -54
l3 -42 80 -6 c49 -4 85 -2 93 4 15 12 10 65 -13 172 -8 33 -17 103 -21 155 -3
52 -11 101 -16 108 -7 8 -38 12 -90 12 -75 0 -81 -2 -106 -29z"/>
<path d="M10308 458 c-10 -7 -22 -42 -29 -78 -6 -36 -22 -97 -35 -137 -13 -39
-24 -81 -24 -94 0 -12 -10 -41 -22 -65 -29 -59 -19 -69 72 -68 39 1 76 6 80
10 5 5 12 27 16 48 3 22 16 60 28 85 17 36 26 46 46 46 22 0 25 -5 28 -44 2
-32 -1 -47 -12 -53 -18 -10 -22 -48 -6 -48 6 0 13 7 16 15 9 21 24 19 24 -4 0
-28 48 -63 79 -57 14 3 59 8 99 11 63 6 72 9 72 27 0 17 -5 19 -25 14 -22 -6
-28 -2 -40 28 -16 38 -19 84 -7 101 4 6 21 21 38 32 33 24 49 65 60 154 10 89
11 89 -235 89 -150 0 -212 -3 -223 -12z m246 -48 c15 -5 31 -21 37 -34 10 -21
7 -29 -16 -60 -31 -41 -59 -52 -98 -37 -34 13 -42 46 -23 93 20 48 48 58 100
38z"/>
<path d="M11330 451 c-5 -11 -10 -31 -10 -45 0 -13 -11 -60 -24 -103 -13 -43
-31 -105 -39 -138 -8 -33 -20 -74 -27 -91 -26 -62 -21 -64 180 -64 230 0 262
7 301 69 15 25 33 71 39 101 6 30 20 83 31 116 12 36 19 80 17 105 -5 65 -17
69 -255 69 -190 0 -203 -1 -213 -19z m279 -54 c18 -15 8 -108 -19 -171 -11
-26 -20 -58 -20 -70 0 -34 -27 -64 -70 -77 -33 -10 -43 -9 -65 5 -30 19 -31
37 -6 91 10 23 21 63 25 90 10 69 41 133 68 145 26 10 66 4 87 -13z"/>
</g>
</svg>
